<?xml version="1.0" standalone="no"?>
<!DOCTYPE svg PUBLIC "-//W3C//DTD SVG 20010904//EN"
 "http://www.w3.org/TR/2001/REC-SVG-20010904/DTD/svg10.dtd">
<svg version="1.0" xmlns="http://www.w3.org/2000/svg"
 width="1131.000000pt" height="1600.000000pt" viewBox="0 0 1131.000000 1600.000000"
 preserveAspectRatio="xMidYMid meet">

<g transform="translate(0.000000,1600.000000) scale(0.100000,-0.100000)"
fill="#000000" stroke="none">
<path d="M1250 9206 l0 -1046 135 0 135 0 0 465 0 465 198 0 c227 0 294 -9
376 -53 103 -55 219 -205 486 -630 l155 -247 173 0 c136 0 172 3 166 13 -47
81 -380 597 -423 655 -76 103 -177 200 -253 245 -34 20 -55 38 -47 40 8 2 54
14 103 25 234 57 389 194 441 393 20 72 19 226 -1 303 -39 151 -138 278 -266
340 -138 67 -157 69 -800 73 l-578 4 0 -1045z m1058 804 c145 -24 246 -92 294
-197 33 -75 31 -200 -5 -275 -51 -105 -134 -164 -274 -193 -52 -11 -153 -15
-435 -15 l-368 0 0 345 0 345 363 0 c199 0 390 -5 425 -10z"/>
<path d="M6565 10125 l-120 -74 -5 -188 -5 -188 -75 -2 c-41 -1 -83 -2 -93 -2
-16 -1 -17 -11 -15 -98 l3 -98 92 -3 92 -3 4 -542 c4 -579 6 -599 55 -667 53
-74 130 -109 257 -117 67 -5 221 10 232 21 2 2 -5 52 -15 112 l-18 109 -75 -3
c-93 -5 -140 13 -166 60 -17 30 -18 72 -21 531 l-3 497 130 0 131 0 0 103 0
102 -106 -3 c-58 -2 -117 -1 -130 2 l-25 7 3 259 c2 143 1 260 -2 260 -3 -1
-59 -34 -125 -75z"/>
<path d="M9963 10122 l-123 -75 0 -189 0 -189 -87 2 -88 2 -3 -101 -3 -102 90
0 89 0 5 -537 c5 -585 7 -606 62 -679 57 -74 155 -114 285 -114 61 0 190 16
199 25 2 3 -4 53 -14 112 l-17 108 -94 0 c-92 0 -94 0 -126 33 l-33 32 -3 510
-3 509 128 3 128 3 0 99 0 99 -125 1 -125 1 -3 263 c-1 144 -6 262 -10 261 -4
-1 -62 -35 -129 -77z"/>
<path d="M5305 9696 c-154 -26 -268 -82 -339 -169 -128 -156 -120 -384 19
-522 74 -75 184 -118 520 -208 188 -51 238 -71 279 -117 33 -37 36 -45 36
-104 0 -90 -39 -147 -135 -196 -68 -35 -68 -35 -204 -35 -128 0 -139 2 -198
29 -79 36 -143 103 -172 179 -11 32 -21 67 -21 78 0 18 -4 20 -32 16 -18 -4
-71 -11 -118 -18 -47 -6 -90 -14 -96 -18 -16 -9 14 -119 55 -200 62 -121 160
-203 299 -249 65 -21 101 -26 232 -30 134 -3 167 -1 244 17 173 41 302 134
364 261 99 201 42 422 -134 526 -55 33 -149 64 -402 135 -251 70 -302 90 -342
135 -39 45 -47 93 -25 149 35 94 133 139 305 139 136 0 196 -19 261 -84 34
-34 52 -63 65 -104 18 -56 19 -57 49 -52 16 2 72 10 123 17 53 7 92 16 92 23
0 27 -31 123 -55 171 -68 140 -248 226 -497 239 -55 3 -125 0 -173 -8z"/>
<path d="M7696 9699 c-285 -39 -437 -149 -510 -368 -15 -46 -26 -85 -24 -86 7
-8 240 -35 248 -30 6 3 10 10 10 15 0 30 47 125 80 163 72 82 220 120 384 99
199 -26 273 -100 284 -284 l5 -87 -54 -15 c-89 -26 -191 -45 -356 -66 -224
-30 -298 -46 -378 -84 -128 -61 -206 -144 -245 -262 -33 -97 -26 -224 16 -315
56 -117 158 -197 299 -234 76 -19 267 -19 360 0 105 23 297 122 344 179 21 25
29 19 37 -21 4 -21 15 -62 26 -90 l19 -53 134 0 134 0 -21 47 c-49 110 -50
122 -57 653 -8 547 -8 544 -67 646 -48 84 -156 151 -290 179 -89 19 -290 27
-378 14z m464 -1014 c-14 -93 -49 -162 -113 -223 -97 -91 -207 -132 -356 -132
-111 0 -173 21 -231 79 -82 82 -93 192 -29 286 48 69 107 92 332 129 168 28
297 56 362 79 l40 14 3 -81 c2 -44 -2 -112 -8 -151z"/>
<path d="M9317 9699 c-91 -21 -166 -86 -231 -199 l-31 -55 -3 115 -3 115 -112
-1 -112 -1 -3 -757 -2 -756 130 0 130 0 0 444 c0 349 3 462 15 529 23 131 48
189 105 240 90 81 193 88 341 23 13 -6 24 13 58 104 22 61 41 115 41 120 0 16
-99 61 -169 76 -74 15 -99 16 -154 3z"/>
<path d="M3820 9673 c-70 -12 -211 -56 -250 -78 -25 -13 -52 -28 -60 -32 -8
-3 -25 -13 -38 -21 -25 -16 -45 0 198 -167 l65 -45 179 -19 c98 -11 180 -22
182 -24 2 -2 -38 -18 -89 -35 -102 -36 -94 -36 35 -1 l87 24 26 -25 c14 -13
22 -27 18 -31 -16 -14 -549 -179 -579 -179 -10 0 -14 13 -14 44 0 34 9 60 35
103 41 68 43 83 11 103 -18 12 -180 122 -242 165 -12 8 -26 -2 -61 -40 -73
-80 -82 -92 -96 -116 -7 -13 -24 -42 -38 -64 -21 -33 -45 -90 -85 -198 -9 -25
79 -62 184 -78 142 -22 344 16 602 112 340 126 563 155 733 98 33 -11 63 -19
68 -17 10 4 -43 112 -72 148 -12 14 -17 18 -13 10 4 -8 4 -12 -1 -8 -4 4 -15
2 -24 -4 -13 -10 -14 -10 -3 2 18 21 14 42 -14 74 -19 21 -28 26 -34 17 -5
-10 -9 -9 -13 4 -4 9 -3 13 3 10 22 -13 8 10 -22 39 -61 58 -118 97 -129 90
-8 -4 -9 -3 -5 5 8 13 -177 106 -193 97 -5 -4 -11 -1 -13 5 -2 6 -22 11 -45
12 -22 1 -39 5 -37 8 9 15 -187 24 -256 12z m-92 -96 c-1 -2 3 -11 11 -21 16
-19 12 -25 -18 -31 -12 -2 -19 0 -16 6 4 5 0 9 -7 10 -10 0 -10 2 0 6 6 2 10
9 6 14 -3 5 0 8 8 7 7 -2 12 4 10 12 -2 8 -1 12 3 8 4 -3 5 -8 3 -11z m282
-87 c21 -19 27 -30 17 -30 -8 0 -25 -12 -36 -27 -16 -22 -20 -24 -21 -10 0 9
-11 23 -25 29 -27 12 -34 28 -12 28 7 0 19 9 27 20 8 11 15 20 16 20 1 0 16
-13 34 -30z m424 -39 c-2 -3 -12 3 -22 13 -16 17 -16 18 5 5 12 -7 20 -15 17
-18z m64 -66 c-3 -3 -9 2 -12 12 -6 14 -5 15 5 6 7 -7 10 -15 7 -18z m-135 -2
c-4 -11 -3 -14 5 -9 17 10 15 -19 -2 -33 -10 -9 -16 -8 -26 4 -11 13 -10 19 5
35 22 24 26 25 18 3z m-914 -154 c11 0 9 -3 -7 -9 -12 -5 -25 -16 -28 -24 -4
-12 -10 -10 -27 7 -25 25 -31 48 -11 40 8 -3 17 3 21 13 6 16 8 16 21 -4 8
-12 22 -22 31 -23z"/>
<path d="M4265 9124 c-44 -8 -192 -52 -330 -98 -262 -89 -383 -120 -500 -131
-80 -8 -199 7 -283 36 l-57 19 25 -20 c14 -11 44 -32 66 -47 41 -26 42 -28 49
-97 9 -103 41 -219 83 -305 55 -112 169 -225 282 -279 126 -60 211 -75 383
-70 110 4 158 10 212 27 96 31 203 100 269 173 55 60 130 195 142 254 l6 31
-114 12 c-62 7 -120 14 -129 17 -12 3 -26 -15 -52 -70 -72 -151 -177 -225
-334 -233 -234 -14 -407 116 -468 352 -24 93 -23 95 36 95 84 0 234 36 425
101 371 127 444 143 623 137 97 -4 138 -10 180 -26 30 -12 57 -20 59 -17 6 6
-130 93 -173 111 -103 43 -256 54 -400 28z"/>
<path d="M1243 7864 c-10 -4 -13 -71 -13 -285 l0 -279 221 0 220 0 -3 238 c-4
332 1 325 -253 329 -88 1 -166 0 -172 -3z m341 -78 c30 -29 39 -111 34 -301
l-3 -130 -162 -3 -163 -2 0 230 0 230 135 0 c129 0 137 -1 159 -24z"/>
<path d="M1730 7845 c-6 -15 -10 -28 -10 -31 0 -2 20 -4 45 -4 l45 0 0 -125 0
-125 30 0 31 0 -3 153 -3 152 -63 3 c-59 3 -63 2 -72 -23z"/>
<path d="M1930 7845 c-6 -15 -10 -28 -10 -31 0 -2 70 -4 155 -4 l155 0 0 -255
0 -255 25 0 25 0 0 254 0 255 33 3 c27 2 32 7 32 28 l0 25 -203 3 -202 2 -10
-25z"/>
<path d="M2370 7844 c-6 -14 -10 -27 -10 -30 0 -2 23 -4 50 -4 l50 0 0 -255 0
-255 25 0 25 0 0 285 0 285 -65 0 c-61 0 -66 -2 -75 -26z"/>
<path d="M2627 7863 c-4 -3 -7 -73 -7 -155 l0 -148 80 0 c79 0 80 0 80 25 0
23 -3 25 -50 25 l-50 0 0 106 0 106 114 -3 c105 -4 117 -6 140 -28 38 -36 48
-89 44 -231 -4 -135 -15 -171 -55 -189 -14 -6 -81 -11 -159 -11 -130 0 -135
-1 -143 -22 -5 -13 -5 -27 -1 -31 4 -5 75 -7 156 -5 175 4 204 14 235 81 16
36 19 66 19 202 0 137 -3 166 -20 203 -30 67 -73 82 -241 82 -75 0 -139 -3
-142 -7z"/>
<path d="M3072 7841 l-11 -30 47 -3 47 -3 3 -122 3 -123 24 0 25 0 0 155 0
155 -64 0 c-62 0 -64 -1 -74 -29z"/>
<path d="M3270 7844 c-6 -14 -10 -27 -10 -30 0 -2 65 -4 144 -4 198 0 186 19
186 -281 l0 -229 25 0 25 0 0 243 c0 330 2 327 -238 327 -122 0 -123 0 -132
-26z"/>
<path d="M3706 7848 c-9 -37 -8 -38 44 -38 l50 0 0 -255 0 -255 25 0 25 0 0
285 0 285 -69 0 c-63 0 -69 -2 -75 -22z"/>
<path d="M4183 7864 c-10 -4 -13 -71 -13 -285 l0 -279 221 0 220 0 -3 243 c-4
329 3 320 -253 324 -88 1 -166 0 -172 -3z m344 -78 l28 -24 0 -204 0 -203
-162 -3 -163 -2 0 230 0 230 134 0 c128 0 136 -1 163 -24z"/>
<path d="M4670 7845 c-6 -15 -10 -28 -10 -31 0 -2 20 -4 45 -4 l45 0 0 -125 0
-125 30 0 31 0 -3 153 -3 152 -63 3 c-59 3 -63 2 -72 -23z"/>
<path d="M4938 7863 l-28 -4 0 -280 0 -279 25 0 25 0 0 255 0 255 130 0 c144
0 174 -8 190 -53 6 -17 10 -120 10 -243 l0 -214 25 0 25 0 0 238 c0 255 -3
268 -53 306 -26 19 -43 21 -175 22 -81 1 -159 0 -174 -3z"/>
<path d="M5400 7844 c-6 -14 -10 -27 -10 -30 0 -2 20 -4 45 -4 l45 0 0 -125 0
-125 30 0 30 0 0 155 0 155 -65 0 c-61 0 -66 -2 -75 -26z"/>
<path d="M5650 7584 l0 -286 158 4 c171 3 202 12 244 69 31 41 38 93 38 302
l0 197 -36 0 c-33 0 -46 -10 -127 -92 -77 -78 -88 -93 -71 -98 29 -11 44 -2
111 68 49 50 64 61 69 48 13 -33 -1 -339 -16 -370 -30 -60 -59 -71 -196 -75
l-124 -3 0 261 0 261 -25 0 -25 0 0 -286z"/>
<path d="M6146 7862 c-2 -4 13 -79 34 -167 21 -88 50 -213 65 -277 l27 -118
106 0 c149 1 206 29 242 124 22 58 120 406 120 426 0 19 -5 21 -62 18 -60 -3
-63 -4 -66 -30 -3 -26 -1 -28 33 -28 26 0 36 -4 32 -13 -2 -7 -29 -93 -58
-192 -43 -147 -59 -186 -85 -214 -31 -34 -33 -35 -126 -39 -93 -4 -95 -4 -101
19 -11 40 -8 48 20 51 26 3 29 10 85 198 78 266 76 252 43 248 -27 -3 -30 -9
-87 -208 -33 -113 -63 -208 -67 -212 -4 -5 -29 89 -55 207 -46 203 -50 215
-72 215 -13 0 -25 -3 -28 -8z"/>
<path d="M7058 7863 c-16 -2 -28 -8 -28 -13 0 -5 -3 -15 -6 -24 -5 -13 1 -16
30 -16 l36 0 -2 -227 -3 -228 -52 -3 c-49 -3 -53 -5 -53 -28 0 -23 2 -24 80
-24 l80 0 0 255 0 255 130 0 c126 0 132 -1 155 -25 l25 -24 0 -231 0 -230 31
0 31 0 -4 238 c-4 333 2 325 -258 328 -91 1 -177 0 -192 -3z"/>
<path d="M7570 7856 c0 -8 -3 -21 -6 -30 -5 -13 2 -16 45 -16 l51 0 0 -255 0
-255 25 0 25 0 0 285 0 285 -70 0 c-54 0 -70 -3 -70 -14z"/>
<path d="M7820 7715 l0 -155 80 0 c79 0 80 0 80 25 0 23 -3 25 -50 25 l-50 0
0 106 0 106 115 -4 c107 -3 116 -5 140 -28 30 -31 45 -102 45 -214 -1 -114
-13 -166 -45 -193 -24 -22 -35 -23 -165 -23 -131 0 -140 -1 -151 -21 -19 -36
0 -41 157 -37 237 5 249 19 249 288 0 204 -7 228 -78 261 -35 15 -66 19 -184
19 l-143 0 0 -155z"/>
<path d="M8295 7818 c3 -29 12 -131 20 -226 12 -145 18 -179 37 -215 30 -55
79 -79 172 -84 60 -4 78 -1 116 19 89 46 105 98 115 376 l7 182 -237 0 -236 0
6 -52z m402 -182 c-7 -181 -14 -216 -50 -254 -49 -53 -166 -52 -224 2 -39 35
-46 69 -58 299 l-7 127 172 0 173 0 -6 -174z"/>
<path d="M9026 7848 c-9 -37 -8 -38 39 -38 l45 0 0 -125 0 -125 25 0 25 0 0
155 0 155 -64 0 c-58 0 -64 -2 -70 -22z"/>
<path d="M9216 7854 c-14 -37 -7 -44 44 -44 l50 0 0 -255 0 -255 25 0 25 0 0
285 0 285 -69 0 c-54 0 -70 -4 -75 -16z"/>
<path d="M9455 7855 c-3 -8 -7 -22 -10 -30 -4 -13 22 -15 195 -15 110 0 200
-3 200 -8 0 -4 -29 -114 -65 -245 -36 -131 -65 -242 -65 -248 0 -17 48 -10 54
9 52 173 144 526 139 537 -8 23 -441 22 -448 0z"/>
<path d="M9941 7840 l-10 -30 43 0 c29 0 46 -5 49 -14 3 -8 5 -65 4 -125 l-2
-111 28 0 27 0 0 155 0 155 -64 0 c-62 0 -64 -1 -75 -30z"/>
<path d="M10175 7856 c-3 -9 -7 -23 -10 -31 -3 -12 7 -15 55 -15 92 0 90 4 90
-241 l0 -209 -80 0 -80 0 0 -30 0 -30 111 0 110 0 -3 255 -3 255 -26 26 c-22
21 -39 27 -93 31 -55 5 -66 3 -71 -11z"/>
<path d="M9470 7633 c0 -5 -1 -120 -1 -258 l-1 -250 23 0 24 0 3 258 2 257
-25 0 c-14 0 -25 -3 -25 -7z"/>
</g>
</svg>
