<?xml version="1.0" standalone="no"?>
<!DOCTYPE svg PUBLIC "-//W3C//DTD SVG 20010904//EN"
 "http://www.w3.org/TR/2001/REC-SVG-20010904/DTD/svg10.dtd">
<svg version="1.0" xmlns="http://www.w3.org/2000/svg"
 width="944.000000pt" height="325.000000pt" viewBox="0 0 944.000000 325.000000"
 preserveAspectRatio="xMidYMid meet">

<g transform="translate(0.000000,325.000000) scale(0.100000,-0.100000)"
fill="#000000" stroke="none">
<path d="M120 2136 l0 -1046 135 0 135 0 0 465 0 465 198 0 c227 0 294 -9 376
-53 103 -55 219 -205 486 -630 l155 -247 174 0 173 0 -14 22 c-175 280 -383
602 -416 646 -66 90 -181 200 -251 242 -37 23 -59 41 -50 43 7 2 54 14 103 25
234 57 389 194 441 393 20 72 19 226 -1 303 -39 151 -137 277 -264 339 -141
68 -157 70 -802 74 l-578 4 0 -1045z m1143 786 c90 -30 161 -89 201 -167 27
-54 31 -69 30 -145 0 -64 -6 -96 -22 -132 -28 -62 -95 -134 -152 -163 -94 -48
-169 -55 -565 -55 l-365 0 0 346 0 345 403 -3 c385 -4 405 -5 470 -26z"/>
<path d="M5435 3055 l-120 -74 -5 -188 -5 -188 -90 0 -90 0 0 -100 0 -100 93
-3 92 -3 0 -494 c0 -613 6 -670 81 -743 63 -62 152 -92 272 -92 56 0 187 16
195 24 1 2 -6 52 -16 112 l-18 109 -75 -3 c-93 -5 -140 13 -166 60 -17 30 -18
72 -21 531 l-3 497 130 0 131 0 0 103 0 102 -106 -3 c-58 -2 -117 -1 -130 2
l-25 7 3 259 c2 143 1 260 -2 260 -3 -1 -59 -34 -125 -75z"/>
<path d="M8835 3054 l-120 -74 -5 -188 -5 -187 -85 -1 -85 -2 -3 -101 -3 -101
90 0 89 0 5 -537 c4 -586 6 -606 62 -678 65 -86 177 -123 339 -111 120 9 146
15 146 35 0 9 -7 60 -17 113 l-16 97 -77 -6 c-60 -4 -84 -2 -112 11 -69 33
-68 26 -68 580 l0 495 128 3 127 3 0 98 0 98 -125 2 -125 2 -3 263 c-1 144 -6
262 -10 261 -4 -1 -61 -34 -127 -75z"/>
<path d="M4170 2626 c-148 -27 -258 -81 -326 -159 -169 -198 -115 -491 113
-605 65 -33 215 -81 428 -138 174 -46 231 -71 273 -118 29 -33 32 -43 32 -100
0 -52 -5 -70 -28 -104 -65 -98 -173 -138 -348 -129 -82 4 -113 10 -161 32
-100 44 -169 132 -188 238 -7 37 -9 38 -39 33 -17 -3 -71 -11 -121 -17 -49 -7
-93 -15 -97 -18 -11 -11 28 -135 66 -209 45 -84 128 -167 208 -206 104 -50
168 -61 358 -61 196 0 241 9 365 73 302 156 341 568 69 728 -55 33 -149 64
-402 135 -118 32 -236 69 -263 80 -99 43 -139 127 -101 212 40 91 129 129 302
130 106 1 120 -1 178 -28 75 -34 124 -87 148 -159 9 -28 18 -52 19 -54 7 -8
245 33 245 42 0 27 -31 123 -55 171 -69 141 -250 227 -503 240 -59 2 -127 -1
-172 -9z"/>
<path d="M6566 2629 c-285 -39 -437 -149 -510 -368 -15 -46 -26 -85 -24 -86 7
-8 240 -35 248 -30 6 3 10 10 10 15 0 31 49 130 82 166 73 79 221 117 383 96
98 -13 155 -35 207 -81 48 -42 69 -99 76 -203 l5 -86 -53 -16 c-72 -22 -239
-52 -390 -71 -186 -24 -267 -42 -345 -79 -127 -60 -207 -146 -246 -263 -32
-97 -25 -223 18 -316 55 -117 156 -195 298 -232 90 -23 281 -20 379 5 110 29
281 120 325 174 21 25 29 19 37 -21 4 -21 15 -62 26 -90 l19 -53 134 0 134 0
-21 47 c-49 110 -50 122 -57 653 -8 547 -8 544 -67 646 -47 82 -159 151 -289
179 -89 19 -290 27 -379 14z m464 -1013 c-15 -95 -39 -146 -102 -212 -91 -97
-212 -144 -367 -144 -111 0 -173 21 -231 79 -82 82 -93 192 -29 286 49 71 99
90 364 135 166 28 282 55 345 78 l25 9 3 -80 c2 -45 -2 -113 -8 -151z"/>
<path d="M8187 2629 c-89 -21 -150 -72 -225 -187 l-37 -57 -3 108 -3 107 -94
1 c-52 1 -103 2 -112 3 -17 1 -18 -42 -21 -756 l-2 -758 130 0 130 0 0 444 c0
349 3 462 15 529 23 131 48 189 105 240 90 81 193 88 341 23 13 -6 24 16 59
110 50 134 53 127 -49 165 -99 37 -164 45 -234 28z"/>
<path d="M2690 2604 c-122 -24 -282 -81 -302 -108 -3 -5 -14 -11 -23 -12 -9
-1 -23 -8 -31 -15 -15 -12 -22 -7 203 -161 l68 -47 140 -15 c77 -9 160 -19
185 -22 l45 -7 -95 -33 c-113 -39 -108 -43 9 -9 47 14 93 25 103 25 20 0 61
-41 51 -51 -17 -14 -548 -179 -579 -179 -10 0 -14 13 -14 44 0 34 9 60 35 103
41 69 43 83 11 103 -13 8 -52 34 -86 58 -64 44 -76 50 -64 30 4 -7 3 -8 -5 -4
-6 4 -9 11 -6 15 2 5 -18 23 -46 40 -40 27 -52 31 -64 21 -8 -7 -12 -17 -8
-23 3 -6 1 -7 -5 -3 -14 9 -84 -84 -77 -102 4 -12 2 -12 -8 -4 -11 9 -17 6
-28 -16 -8 -15 -26 -45 -40 -67 -21 -33 -89 -194 -89 -211 0 -13 114 -54 180
-64 147 -24 297 3 597 107 254 88 339 111 464 125 89 10 120 9 195 -4 49 -8
103 -21 121 -29 18 -7 35 -11 38 -8 9 10 -26 69 -37 63 -7 -4 -8 -2 -4 5 8 13
-39 101 -54 101 -5 0 -14 -8 -19 -17 -6 -10 -11 -13 -11 -6 0 6 5 15 10 18 20
12 9 32 -54 100 -43 46 -67 65 -76 60 -8 -5 -11 -4 -7 2 4 6 -1 17 -10 24 -14
12 -16 12 -8 -1 4 -8 -5 -1 -22 16 -36 37 -194 117 -233 118 -16 1 -26 4 -24
8 12 19 -255 46 -326 32z m27 -20 c-3 -3 -12 -4 -19 -1 -8 3 -5 6 6 6 11 1 17
-2 13 -5z m-144 -97 c-3 -7 4 -3 17 8 13 11 20 14 16 7 -4 -7 -1 -14 7 -18 26
-9 14 -30 -17 -29 -25 1 -30 5 -31 27 -1 15 2 25 7 22 4 -3 5 -11 1 -17z m657
-17 c8 -5 11 -10 5 -10 -5 0 -17 5 -25 10 -8 5 -10 10 -5 10 6 0 17 -5 25 -10z
m-362 -40 c7 -11 19 -20 27 -20 8 0 15 -4 15 -10 0 -5 -7 -10 -15 -10 -8 0
-22 -12 -32 -26 l-17 -26 -8 22 c-4 12 -17 24 -28 27 -27 7 -25 17 6 31 14 7
22 17 19 22 -3 6 0 10 7 10 7 0 19 -9 26 -20z m72 -12 c0 -6 -6 -5 -15 2 -8 7
-15 14 -15 16 0 2 7 1 15 -2 8 -4 15 -11 15 -16z m310 -52 c0 -2 -8 -10 -17
-17 -16 -13 -17 -12 -4 4 13 16 21 21 21 13z m9 -22 c-8 -9 -12 -27 -11 -39 4
-31 -21 -50 -38 -30 -11 13 -8 21 20 50 35 36 53 48 29 19z m142 -21 c13 -16
12 -17 -3 -4 -17 13 -22 21 -14 21 2 0 10 -8 17 -17z m-1177 -23 c-6 -6 -15
-5 -24 1 -13 9 -12 10 3 5 9 -3 17 0 17 6 0 6 3 8 7 5 4 -4 2 -12 -3 -17z
m-74 -76 c0 -8 -19 -13 -24 -6 -3 5 1 9 9 9 8 0 15 -2 15 -3z m148 -83 c-10
-7 -18 -21 -19 -30 0 -11 -3 -9 -9 7 -5 12 -16 22 -24 22 -27 0 -28 20 -2 30
14 5 26 15 26 21 0 7 10 1 23 -12 23 -23 23 -25 5 -38z m-223 -181 c-3 -5 -12
-10 -18 -10 -7 0 -6 4 3 10 19 12 23 12 15 0z"/>
<path d="M3117 2051 c-48 -11 -187 -53 -310 -95 -423 -144 -585 -164 -783 -96
-30 11 -54 18 -54 16 0 -1 29 -23 64 -47 l64 -44 7 -70 c18 -195 82 -341 200
-461 136 -138 285 -194 518 -194 220 0 357 51 488 181 60 59 86 94 118 160 22
47 43 99 47 115 l6 31 -114 12 c-62 7 -120 14 -129 17 -12 3 -26 -15 -52 -70
-71 -149 -176 -224 -329 -233 -48 -3 -107 -1 -138 6 -179 38 -315 194 -345
396 l-7 45 48 0 c110 0 243 34 501 125 269 96 333 109 518 110 142 0 166 -3
214 -22 30 -13 57 -21 59 -19 10 10 -129 91 -202 118 -108 40 -257 47 -389 19z"/>
<path d="M113 794 c-10 -4 -13 -71 -13 -285 l0 -279 221 0 220 0 -3 238 c-4
332 1 325 -253 329 -88 1 -166 0 -172 -3z m341 -78 c30 -29 39 -111 34 -301
l-3 -130 -162 -3 -163 -2 0 230 0 230 135 0 c129 0 137 -1 159 -24z"/>
<path d="M600 775 c-6 -15 -10 -28 -10 -31 0 -2 20 -4 45 -4 l45 0 0 -125 0
-125 30 0 31 0 -3 153 -3 152 -63 3 c-59 3 -63 2 -72 -23z"/>
<path d="M800 775 c-6 -15 -10 -28 -10 -31 0 -2 70 -4 155 -4 l155 0 0 -255 0
-255 25 0 25 0 0 254 0 255 33 3 c27 2 32 7 32 28 l0 25 -203 3 -202 2 -10
-25z"/>
<path d="M1240 774 c-6 -14 -10 -27 -10 -30 0 -2 23 -4 50 -4 l50 0 0 -255 0
-255 25 0 25 0 0 285 0 285 -65 0 c-61 0 -66 -2 -75 -26z"/>
<path d="M1497 793 c-4 -3 -7 -73 -7 -155 l0 -148 80 0 c79 0 80 0 80 25 0 23
-3 25 -50 25 l-50 0 0 106 0 106 114 -4 c105 -3 117 -5 140 -27 38 -36 48 -89
44 -231 -4 -135 -15 -171 -55 -189 -14 -6 -81 -11 -159 -11 -130 0 -135 -1
-143 -22 -5 -13 -5 -27 -1 -31 4 -5 75 -7 156 -5 134 3 153 5 185 26 59 36 69
76 69 260 -1 258 -22 281 -261 282 -75 0 -139 -3 -142 -7z"/>
<path d="M1945 785 c-3 -8 -7 -22 -9 -29 -4 -11 6 -16 42 -18 l47 -3 3 -122 3
-123 24 0 25 0 0 155 0 155 -65 0 c-50 0 -67 -4 -70 -15z"/>
<path d="M2140 774 c-6 -14 -10 -27 -10 -30 0 -2 65 -4 144 -4 198 0 186 19
186 -281 l0 -229 25 0 25 0 0 243 c0 330 2 327 -238 327 -122 0 -123 0 -132
-26z"/>
<path d="M2576 778 c-9 -37 -8 -38 44 -38 l50 0 0 -255 0 -255 25 0 25 0 0
285 0 285 -69 0 c-63 0 -69 -2 -75 -22z"/>
<path d="M3058 794 c-17 -5 -18 -27 -18 -285 l0 -279 221 0 220 0 -3 243 c-4
328 2 320 -248 323 -85 2 -163 0 -172 -2z m339 -78 l28 -24 0 -204 0 -203
-162 -3 -163 -2 0 230 0 230 134 0 c128 0 136 -1 163 -24z"/>
<path d="M3540 775 c-6 -15 -10 -28 -10 -31 0 -2 20 -4 45 -4 l45 0 0 -125 0
-125 30 0 31 0 -3 153 -3 152 -63 3 c-59 3 -63 2 -72 -23z"/>
<path d="M3808 793 l-28 -4 0 -280 0 -279 25 0 25 0 0 255 0 255 130 0 c144 0
174 -8 190 -53 6 -17 10 -120 10 -243 l0 -214 25 0 25 0 0 238 c0 255 -3 268
-53 306 -26 19 -43 21 -175 22 -81 1 -159 0 -174 -3z"/>
<path d="M4270 774 c-6 -14 -10 -27 -10 -30 0 -2 20 -4 45 -4 l45 0 0 -125 0
-125 30 0 30 0 0 155 0 155 -65 0 c-61 0 -66 -2 -75 -26z"/>
<path d="M4520 514 l0 -286 158 4 c171 3 202 12 244 69 31 41 38 93 38 302 l0
197 -38 0 c-34 0 -45 -8 -125 -91 -48 -50 -85 -94 -82 -99 13 -21 60 5 120 67
45 46 66 62 70 52 3 -8 4 -91 3 -185 -3 -142 -6 -174 -21 -197 -34 -53 -61
-62 -194 -66 l-123 -3 0 261 0 261 -25 0 -25 0 0 -286z"/>
<path d="M5015 790 c-3 -5 -4 -13 -1 -18 2 -4 30 -118 61 -252 31 -135 58
-255 62 -268 5 -21 9 -22 112 -22 148 1 205 29 241 124 22 58 120 406 120 426
0 19 -5 21 -62 18 -60 -3 -63 -4 -66 -30 -3 -26 -1 -28 33 -28 26 0 36 -4 32
-13 -2 -7 -29 -93 -58 -192 -43 -147 -59 -186 -85 -214 -31 -34 -33 -35 -126
-39 -93 -4 -95 -4 -101 19 -11 40 -8 48 20 51 26 3 29 10 85 198 78 266 76
252 43 248 -27 -3 -30 -9 -87 -208 -33 -113 -63 -208 -67 -212 -4 -5 -29 89
-55 207 -46 203 -50 215 -72 215 -13 0 -26 -4 -29 -10z"/>
<path d="M5928 793 c-16 -2 -28 -8 -28 -13 0 -5 -3 -15 -6 -24 -5 -13 1 -16
30 -16 l36 0 -2 -227 -3 -228 -52 -3 c-49 -3 -53 -5 -53 -28 0 -23 2 -24 80
-24 l80 0 0 255 0 255 130 0 c126 0 132 -1 155 -25 l25 -24 0 -231 0 -230 31
0 31 0 -4 238 c-4 333 2 325 -258 328 -91 1 -177 0 -192 -3z"/>
<path d="M6440 786 c0 -8 -3 -21 -6 -30 -5 -13 2 -16 45 -16 l51 0 0 -255 0
-255 25 0 25 0 0 285 0 285 -70 0 c-54 0 -70 -3 -70 -14z"/>
<path d="M6690 645 l0 -155 80 0 c79 0 80 0 80 25 0 23 -3 25 -50 25 l-50 0 0
106 0 106 115 -4 c107 -3 116 -5 140 -28 34 -35 48 -119 42 -252 -5 -111 -16
-146 -56 -167 -10 -6 -81 -11 -159 -12 -133 -1 -140 -2 -146 -22 -3 -11 -3
-24 0 -29 7 -11 262 -10 303 2 91 26 115 93 109 305 -6 234 -28 254 -265 255
l-143 0 0 -155z"/>
<path d="M7167 793 c-3 -5 3 -107 14 -227 17 -207 20 -222 46 -265 37 -59 96
-83 195 -78 109 7 167 56 187 160 5 29 13 134 16 235 l7 182 -231 0 c-126 0
-232 -3 -234 -7z m400 -228 c-9 -225 -23 -262 -108 -285 -60 -17 -126 -3 -166
34 -39 35 -46 69 -58 299 l-7 127 172 0 173 0 -6 -175z"/>
<path d="M7896 778 c-9 -37 -8 -38 39 -38 l45 0 0 -125 0 -125 25 0 25 0 0
155 0 155 -64 0 c-58 0 -64 -2 -70 -22z"/>
<path d="M8086 784 c-14 -37 -7 -44 44 -44 l50 0 0 -255 0 -255 25 0 25 0 0
285 0 285 -69 0 c-54 0 -70 -4 -75 -16z"/>
<path d="M8325 785 c-3 -8 -7 -22 -10 -30 -4 -13 22 -15 195 -15 110 0 200 -3
200 -8 0 -4 -29 -114 -65 -245 -36 -131 -65 -242 -65 -248 0 -5 11 -9 25 -9
20 0 26 7 34 38 6 20 39 140 74 267 35 126 62 237 59 247 -4 17 -21 18 -223
18 -187 0 -220 -2 -224 -15z"/>
<path d="M8811 770 l-10 -30 45 0 c24 0 45 -4 45 -10 1 -5 3 -14 4 -20 1 -5 3
-57 4 -115 l1 -105 25 0 25 0 0 155 0 155 -64 0 c-62 0 -64 -1 -75 -30z"/>
<path d="M9038 771 l-5 -31 58 0 c90 0 89 4 89 -241 l0 -209 -80 0 -80 0 0
-30 0 -30 110 0 110 0 0 235 c0 309 -6 324 -129 333 l-68 4 -5 -31z"/>
<path d="M8339 348 c0 -123 -2 -232 -4 -243 -7 -34 5 -55 31 -55 l24 0 0 260
0 260 -25 0 -25 0 -1 -222z"/>
</g>
</svg>
